<?xml version="1.0" encoding="UTF-8"?>
<!-- Generated by jsxcad -->
<!DOCTYPE svg PUBLIC "-//W3C//DTD SVG 1.1 Tiny//EN" "http://www.w3.org/Graphics/SVG/1.1/DTD/svg11-tiny.dtd">
<svg viewBox="-250 -250 500 500" width="500" height="500" xmlns="http://www.w3.org/2000/svg"><path d="M17.281371789097612,-64.57494766880819L-6.477873348569892,-88.81420594016048L7.512608701456448,-59.66562903068624z" style="fill:rgb(164,51,222)"/><path d="M27.177169102536666,-65.0071590811804L3.5477727412425084,-93.85708777634399L17.281371789097612,-64.57494766880819z" style="fill:rgb(90,32,203)"/><path d="M7.512608701456448,-59.66562903068624L-12.732768335924506,-81.17891697436026L1.4831598853052832,-52.096000884359455z" style="fill:rgb(224,99,205)"/><path d="M33.49488160663253,-60.7445055213657L13.640130241890308,-94.44298603408963L27.177169102536666,-65.0071590811804z" style="fill:rgb(30,49,155)"/><path d="M17.281371789097612,-64.57494766880819L3.5477727412425084,-93.85708777634399L-6.477873348569892,-88.81420594016048z" style="fill:rgb(164,51,222)"/><path d="M-12.830970013374806,-73.77538163209874L1.494300238718542,-44.66723515004565L1.4831598853052832,-52.096000884359455z" style="fill:rgb(247,158,158)"/><path d="M7.512608701456448,-59.66562903068624L-6.477873348569892,-88.81420594016048L-12.732768335924506,-81.17891697436026z" style="fill:rgb(224,99,205)"/><path d="M-6.477873348569892,-88.81420594016048L3.516805351845074,-102.12541817990974L-6.406387302611197,-99.32326285999522zM-12.732768335924506,-81.17891697436026L-6.406387302611197,-99.32326285999522L-12.514979009778306,-97.5982952947815z" style="fill:rgb(83,212,212)"/><path d="M27.177169102536666,-65.0071590811804L13.640130241890308,-94.44298603408963L3.5477727412425084,-93.85708777634399z" style="fill:rgb(90,32,203)"/><path d="M3.5477727412425084,-93.85708777634399L13.488864437737108,-104.94137262028696L3.516805351845074,-102.12541817990974zM-6.477873348569892,-88.81420594016048L3.5477727412425084,-93.85708777634399L3.516805351845074,-102.12541817990974zM-12.732768335924506,-81.17891697436026L-6.477873348569892,-88.81420594016048L-6.406387302611197,-99.32326285999522zM13.640130241890308,-94.44298603408963L19.67652357248048,-106.68866791524854L13.488864437737108,-104.94137262028696z" style="fill:rgb(83,212,212)"/><path d="M-12.830970013374806,-73.77538163209874L1.4831598853052832,-52.096000884359455L-12.732768335924506,-81.17891697436026z" style="fill:rgb(247,158,158)"/><path d="M3.5477727412425084,-93.85708777634399L13.640130241890308,-94.44298603408963L13.488864437737108,-104.94137262028696z" style="fill:rgb(83,212,212)"/><path d="M33.49488160663253,-60.7445055213657L20.021720453470454,-90.29543475445803L13.640130241890308,-94.44298603408963z" style="fill:rgb(30,49,155)"/><path d="M13.640130241890308,-94.44298603408963L20.021720453470454,-90.29543475445803L19.67652357248048,-106.68866791524854zM-30.071391022061317,-13.50769442604032L-19.814161373663065,-95.53712332999011L-27.736391964380445,-93.30000714787349zM-37.45612628222832,-5.929790671328997L-27.736391964380445,-93.30000714787349L-32.426620020070686,-91.97556780858712zM-21.392709722886497,-20.204989761320522L-12.514979009778306,-97.5982952947815L-19.814161373663065,-95.53712332999011zM-37.45612628222832,-5.929790671328997L-32.426620020070686,-91.97556780858712L-34.54490745530037,-86.38807018430695zM-43.26004986695682,2.258967052926052L-34.54490745530037,-86.38807018430695L-40.203447565281046,-71.4622686645385zM21.208172607438012,-33.951436768278604L27.119710212247607,-108.79050439289021L19.67652357248048,-106.68866791524854zM29.30748920581014,-33.57865389438046L35.25991456102639,-111.08917261985626L27.119710212247607,-108.79050439289021zM38.278798822307905,-31.46204423148877L40.10974776500436,-112.45868181009772L35.25991456102639,-111.08917261985626zM-13.48085533392976,-24.779790901456906L-11.200879226135179,-72.63805814548233L-12.830970013374806,-73.77538163209874zM-47.24147367382057,10.760872547266192L-40.203447565281046,-71.4622686645385L-43.998255086461214,-61.45256073682275zM38.278798822307905,-31.46204423148877L42.34604114516043,-108.00523653102456L40.10974776500436,-112.45868181009772zM-11.74275755311584,-25.784803718710478L-6.609699062005692,-69.43470961029126L-11.200879226135179,-72.63805814548233zM-6.892927845122815,-27.797669153794374L-1.414376123468873,-69.67643423291749L-6.609699062005692,-69.43470961029126zM-49.21395292191975,19.2568757943333L-43.998255086461214,-61.45256073682275L-45.67311542772053,-57.03470869978206zM-1.4720741323298823,-30.04753756658206L3.637456133277265,-69.91151369067948L-1.414376123468873,-69.67643423291749zM19.437447897369385,-34.032943554927805L20.177402120167322,-82.9022021260946L18.53388281904248,-80.84802527735896zM-21.392709722886497,-20.204989761320522L-13.48085533392976,-24.779790901456906L-12.514979009778306,-97.5982952947815zM-30.071391022061317,-13.50769442604032L-21.392709722886497,-20.204989761320522L-19.814161373663065,-95.53712332999011zM3.781546198764353,-31.43929202457489L8.6932752503501,-72.45307136308499L3.637456133277265,-69.91151369067948zM14.518721798505043,-33.46559154284151L18.53388281904248,-80.84802527735896L13.919119506778532,-75.0801304321831zM9.048830792605314,-32.83466652749194L13.919119506778532,-75.0801304321831L8.6932752503501,-72.45307136308499zM-37.45612628222832,-5.929790671328997L-30.071391022061317,-13.50769442604032L-27.736391964380445,-93.30000714787349zM45.988967034968,-27.731945756377904L48.34345350075874,-96.06166592044625L42.34604114516043,-108.00523653102456z" style="fill:rgb(83,212,212)"/><path d="M13.260788800610664,-0.6770939419271632L-11.74275755311584,-25.784803718710478L3.256817227158344,3.4399841684982775z" style="fill:rgb(151,45,222)"/><path d="M3.256817227158344,3.4399841684982775L-21.392709722886497,-20.204989761320522L-6.11988540372919,8.884191384174814z" style="fill:rgb(174,56,222)"/><path d="M-43.26004986695682,2.258967052926052L-37.45612628222832,-5.929790671328997L-34.54490745530037,-86.38807018430695z" style="fill:rgb(83,212,212)"/><path d="M23.529868230581098,-3.3133472128259984L-1.4720741323298823,-30.04753756658206L13.260788800610664,-0.6770939419271632z" style="fill:rgb(127,37,217)"/><path d="M-6.11988540372919,8.884191384174814L-30.071391022061317,-13.50769442604032L-14.527472827538755,15.46008803677334z" style="fill:rgb(195,71,219)"/><path d="M-13.48085533392976,-24.779790901456906L-11.74275755311584,-25.784803718710478L-11.200879226135179,-72.63805814548233zM21.208172607438012,-33.951436768278604L29.30748920581014,-33.57865389438046L27.119710212247607,-108.79050439289021z" style="fill:rgb(83,212,212)"/><path d="M33.68956376088395,-4.360997605286025L9.048830792605314,-32.83466652749194L23.529868230581098,-3.3133472128259984z" style="fill:rgb(103,32,209)"/><path d="M-11.74275755311584,-25.784803718710478L-6.892927845122815,-27.797669153794374L-6.609699062005692,-69.43470961029126z" style="fill:rgb(83,212,212)"/><path d="M-14.527472827538755,15.46008803677334L-37.45612628222832,-5.929790671328997L-21.652303864909115,22.934296937943348z" style="fill:rgb(214,87,211)"/><path d="M-6.892927845122815,-27.797669153794374L-1.4720741323298823,-30.04753756658206L-1.414376123468873,-69.67643423291749zM-1.4720741323298823,-30.04753756658206L3.781546198764353,-31.43929202457489L3.637456133277265,-69.91151369067948zM52.10648577994258,-22.499017754846555L52.38492235328509,-88.01330876576866L48.34345350075874,-96.06166592044625zM-47.24147367382057,10.760872547266192L-43.26004986695682,2.258967052926052L-40.203447565281046,-71.4622686645385zM3.781546198764353,-31.43929202457489L9.048830792605314,-32.83466652749194L8.6932752503501,-72.45307136308499zM29.30748920581014,-33.57865389438046L38.278798822307905,-31.46204423148877L35.25991456102639,-111.08917261985626z" style="fill:rgb(83,212,212)"/><path d="M43.361275372919906,-3.7623306874509588L19.437447897369385,-34.032943554927805L33.68956376088395,-4.360997605286025z" style="fill:rgb(80,32,198)"/><path d="M3.256817227158344,3.4399841684982775L-11.74275755311584,-25.784803718710478L-21.392709722886497,-20.204989761320522z" style="fill:rgb(174,56,222)"/><path d="M9.048830792605314,-32.83466652749194L14.518721798505043,-33.46559154284151L13.919119506778532,-75.0801304321831z" style="fill:rgb(83,212,212)"/><path d="M-21.652303864909115,22.934296937943348L-43.26004986695682,2.258967052926052L-27.216822971388385,31.039977483456866z" style="fill:rgb(229,105,201)"/><path d="M14.518721798505043,-33.46559154284151L19.437447897369385,-34.032943554927805L18.53388281904248,-80.84802527735896z" style="fill:rgb(83,212,212)"/><path d="M13.260788800610664,-0.6770939419271632L-1.4720741323298823,-30.04753756658206L-11.74275755311584,-25.784803718710478z" style="fill:rgb(151,45,222)"/><path d="M19.437447897369385,-34.032943554927805L21.208172607438012,-33.951436768278604L20.177402120167322,-82.9022021260946z" style="fill:rgb(83,212,212)"/><path d="M-6.11988540372919,8.884191384174814L-21.392709722886497,-20.204989761320522L-30.071391022061317,-13.50769442604032z" style="fill:rgb(195,71,219)"/><path d="M23.529868230581098,-3.3133472128259984L9.048830792605314,-32.83466652749194L-1.4720741323298823,-30.04753756658206z" style="fill:rgb(127,37,217)"/><path d="M-75.55011131231707,34.08358806029123L-45.67311542772053,-57.03470869978206L-70.80374165658256,9.253458701666332z" style="fill:rgb(83,212,212)"/><path d="M-14.527472827538755,15.46008803677334L-30.071391022061317,-13.50769442604032L-37.45612628222832,-5.929790671328997z" style="fill:rgb(214,87,211)"/><path d="M52.17214763503832,-1.5139375100931582L29.30748920581014,-33.57865389438046L43.361275372919906,-3.7623306874509588z" style="fill:rgb(59,35,183)"/><path d="M56.34636026354991,-15.937989413658954L54.173628492970856,-84.45119357269597L52.38492235328509,-88.01330876576866z" style="fill:rgb(83,212,212)"/><path d="M33.68956376088395,-4.360997605286025L19.437447897369385,-34.032943554927805L9.048830792605314,-32.83466652749194z" style="fill:rgb(103,32,209)"/><path d="M-27.216822971388385,31.039977483456866L-47.24147367382057,10.760872547266192L-30.98875263243847,39.48179895534006z" style="fill:rgb(239,125,187)"/><path d="M-49.21395292191975,19.2568757943333L-47.24147367382057,10.760872547266192L-43.998255086461214,-61.45256073682275zM38.278798822307905,-31.46204423148877L45.988967034968,-27.731945756377904L42.34604114516043,-108.00523653102456z" style="fill:rgb(83,212,212)"/><path d="M-21.652303864909115,22.934296937943348L-37.45612628222832,-5.929790671328997L-43.26004986695682,2.258967052926052z" style="fill:rgb(229,105,201)"/><path d="M43.361275372919906,-3.7623306874509588L29.30748920581014,-33.57865389438046L19.437447897369385,-34.032943554927805z" style="fill:rgb(80,32,198)"/><path d="M59.76653708811231,2.3289747865696797L38.278798822307905,-31.46204423148877L52.17214763503832,-1.5139375100931582z" style="fill:rgb(40,43,167)"/><path d="M-30.98875263243847,39.48179895534006L-49.21395292191975,19.2568757943333L-32.79088077953234,47.942625177919496z" style="fill:rgb(245,144,171)"/><path d="M-27.216822971388385,31.039977483456866L-43.26004986695682,2.258967052926052L-47.24147367382057,10.760872547266192z" style="fill:rgb(239,125,187)"/><path d="M45.988967034968,-27.731945756377904L52.10648577994258,-22.499017754846555L48.34345350075874,-96.06166592044625z" style="fill:rgb(83,212,212)"/><path d="M52.17214763503832,-1.5139375100931582L38.278798822307905,-31.46204423148877L29.30748920581014,-33.57865389438046z" style="fill:rgb(59,35,183)"/><path d="M65.81892037238804,7.649699301739077L45.988967034968,-27.731945756377904L59.76653708811231,2.3289747865696797z" style="fill:rgb(25,53,149)"/><path d="M-30.98875263243847,39.48179895534006L-47.24147367382057,10.760872547266192L-49.21395292191975,19.2568757943333z" style="fill:rgb(245,144,171)"/><path d="M-32.79088077953234,47.942625177919496L-49.056600846476854,27.41454089832948L-32.51094926381315,56.09147993085798z" style="fill:rgb(247,162,153)"/><path d="M-75.55011131231707,34.08358806029123L-70.80374165658256,9.253458701666332L-73.71893645769357,17.630858493181083z" style="fill:rgb(83,212,212)"/><path d="M-1.4720741323298823,-30.04753756658206L-35.895465175037,-72.84331956236824L-11.74275755311584,-25.784803718710478z" style="fill:rgb(151,45,222)"/><path d="M-11.74275755311584,-25.784803718710478L-45.98647727221158,-67.04718251154982L-21.392709722886497,-20.204989761320522z" style="fill:rgb(174,56,222)"/><path d="M59.76653708811231,2.3289747865696797L45.988967034968,-27.731945756377904L38.278798822307905,-31.46204423148877z" style="fill:rgb(40,43,167)"/><path d="M9.048830792605314,-32.83466652749194L-25.19703348414936,-77.34401704067399L-1.4720741323298823,-30.04753756658206z" style="fill:rgb(127,37,217)"/><path d="M-21.392709722886497,-20.204989761320522L-55.10565170838929,-60.16176491259353L-30.071391022061317,-13.50769442604032z" style="fill:rgb(195,71,219)"/><path d="M52.10648577994258,-22.499017754846555L56.34636026354991,-15.937989413658954L52.38492235328509,-88.01330876576866z" style="fill:rgb(83,212,212)"/><path d="M-32.79088077953234,47.942625177919496L-49.21395292191975,19.2568757943333L-49.056600846476854,27.41454089832948z" style="fill:rgb(247,162,153)"/><path d="M70.04908893384133,14.268251799834177L52.10648577994258,-22.499017754846555L65.81892037238804,7.649699301739077z" style="fill:rgb(15,67,129)"/><path d="M-75.55011131231707,34.08358806029123L-73.71893645769357,17.630858493181083L-75.31964640810472,25.95429787588813z" style="fill:rgb(83,212,212)"/><path d="M-32.51094926381315,56.09147993085798L-46.72526108111909,34.89909099906491L-30.112267912221025,63.59458171382225z" style="fill:rgb(243,179,134)"/><path d="M19.437447897369385,-34.032943554927805L-14.274943604061317,-80.38295612254326L9.048830792605314,-32.83466652749194z" style="fill:rgb(103,32,209)"/><path d="M-30.071391022061317,-13.50769442604032L-62.91578535222203,-52.42929549321428L-37.45612628222832,-5.929790671328997z" style="fill:rgb(214,87,211)"/><path d="M65.81892037238804,7.649699301739077L52.10648577994258,-22.499017754846555L45.988967034968,-27.731945756377904z" style="fill:rgb(25,53,149)"/><path d="M56.34636026354991,-15.937989413658954L58.48663208863176,-8.286797343288606L54.173628492970856,-84.45119357269597z" style="fill:rgb(83,212,212)"/><path d="M29.30748920581014,-33.57865389438046L-3.524360080590187,-81.83788354782531L19.437447897369385,-34.032943554927805z" style="fill:rgb(80,32,198)"/><path d="M-37.45612628222832,-5.929790671328997L-69.11491523182531,-44.12378433618919L-43.26004986695682,2.258967052926052z" style="fill:rgb(229,105,201)"/><path d="M-32.51094926381315,56.09147993085798L-49.056600846476854,27.41454089832948L-46.72526108111909,34.89909099906491z" style="fill:rgb(243,179,134)"/><path d="M-11.74275755311584,-25.784803718710478L-35.895465175037,-72.84331956236824L-45.98647727221158,-67.04718251154982z" style="fill:rgb(174,56,222)"/><path d="M-1.4720741323298823,-30.04753756658206L-25.19703348414936,-77.34401704067399L-35.895465175037,-72.84331956236824z" style="fill:rgb(151,45,222)"/><path d="M38.278798822307905,-31.46204423148877L6.6563380175517874,-81.63503217818727L29.30748920581014,-33.57865389438046z" style="fill:rgb(59,35,183)"/><path d="M-21.392709722886497,-20.204989761320522L-45.98647727221158,-67.04718251154982L-55.10565170838929,-60.16176491259353z" style="fill:rgb(195,71,219)"/><path d="M-43.26004986695682,2.258967052926052L-73.44593160061838,-35.54620768145824L-47.24147367382057,10.760872547266192z" style="fill:rgb(239,125,187)"/><path d="M70.04908893384133,14.268251799834177L56.34636026354991,-15.937989413658954L52.10648577994258,-22.499017754846555z" style="fill:rgb(15,67,129)"/><path d="M-75.55011131231707,34.08358806029123L-53.57786308796703,113.28254389417405L-45.67311542772053,-57.03470869978206z" style="fill:rgb(83,212,212)"/><path d="M9.048830792605314,-32.83466652749194L-14.274943604061317,-80.38295612254326L-25.19703348414936,-77.34401704067399z" style="fill:rgb(127,37,217)"/><path d="M-30.071391022061317,-13.50769442604032L-55.10565170838929,-60.16176491259353L-62.91578535222203,-52.42929549321428z" style="fill:rgb(214,87,211)"/><path d="M-35.895465175037,-72.84331956236824L-79.30237255282535,-62.289857432383805L-80.72339346231813,-60.91726555665575zM-35.895465175037,-72.84331956236824L-80.72339346231813,-60.91726555665575L-81.32063345663813,-60.221570949033456z" style="fill:rgb(83,212,212)"/><path d="M19.437447897369385,-34.032943554927805L-3.524360080590187,-81.83788354782531L-14.274943604061317,-80.38295612254326z" style="fill:rgb(103,32,209)"/><path d="M41.6311452771855,-95.9381522969858L-35.15499030821006,-91.99779713078846L-45.38333086001569,-87.20241800646663zM41.6311452771855,-95.9381522969858L-45.38333086001569,-87.20241800646663L-55.19591310507182,-81.61182909100275zM41.6311452771855,-95.9381522969858L-24.65989511222332,-95.92658679858155L-35.15499030821006,-91.99779713078846zM41.6311452771855,-95.9381522969858L-55.19591310507182,-81.61182909100275L-64.44839353934722,-75.30650849409537z" style="fill:rgb(83,212,212)"/><path d="M97.57511192012258,7.446830102378428L86.38753625391821,-15.400328580917026L99.4214371880393,15.235479729152615z" style="fill:rgb(246,167,149)"/><path d="M-45.98647727221158,-67.04718251154982L-81.32063345663813,-60.221570949033456L-84.6613897274071,-56.32998057527627z" style="fill:rgb(83,212,212)"/><path d="M45.988967034968,-27.731945756377904L15.875542428317708,-79.7538576397319L38.278798822307905,-31.46204423148877z" style="fill:rgb(40,43,167)"/><path d="M-37.45612628222832,-5.929790671328997L-62.91578535222203,-52.42929549321428L-69.11491523182531,-44.12378433618919z" style="fill:rgb(229,105,201)"/><path d="M41.6311452771855,-95.9381522969858L-14.051160838975772,-98.9269523365352L-24.65989511222332,-95.92658679858155z" style="fill:rgb(83,212,212)"/><path d="M-47.24147367382057,10.760872547266192L-75.70710581773035,-27.018003983514443L-49.21395292191975,19.2568757943333z" style="fill:rgb(245,144,171)"/><path d="M41.6311452771855,-95.9381522969858L-64.44839353934722,-75.30650849409537L-73.0017606036821,-68.37571002659519zM-55.10565170838929,-60.16176491259353L-84.6613897274071,-56.32998057527627L-87.48791180166421,-53.037399256525674zM-35.895465175037,-72.84331956236824L-25.19703348414936,-77.34401704067399L-79.30237255282535,-62.289857432383805zM-45.98647727221158,-67.04718251154982L-35.895465175037,-72.84331956236824L-81.32063345663813,-60.221570949033456zM41.6311452771855,-95.9381522969858L-73.0017606036821,-68.37571002659519L-79.30237255282535,-62.289857432383805zM41.6311452771855,-95.9381522969858L-3.485316868638488,-100.94706382977213L-14.051160838975772,-98.9269523365352zM-55.10565170838929,-60.16176491259353L-87.48791180166421,-53.037399256525674L-89.04790472798187,-50.793092206706255z" style="fill:rgb(83,212,212)"/><path d="M29.30748920581014,-33.57865389438046L6.6563380175517874,-81.63503217818727L-3.524360080590187,-81.83788354782531z" style="fill:rgb(80,32,198)"/><path d="M-55.10565170838929,-60.16176491259353L-45.98647727221158,-67.04718251154982L-84.6613897274071,-56.32998057527627zM41.6311452771855,-95.9381522969858L6.878462140674443,-101.94576957817067L-3.485316868638488,-100.94706382977213zM-62.91578535222203,-52.42929549321428L-89.04790472798187,-50.793092206706255L-93.17858193460421,-44.850486030897315z" style="fill:rgb(83,212,212)"/><path d="M-43.26004986695682,2.258967052926052L-69.11491523182531,-44.12378433618919L-73.44593160061838,-35.54620768145824z" style="fill:rgb(239,125,187)"/><path d="M97.57511192012258,7.446830102378428L84.59242805506274,-23.170698640598697L86.38753625391821,-15.400328580917026z" style="fill:rgb(246,167,149)"/><path d="M99.4214371880393,15.235479729152615L86.70133315632133,-7.0804744622787155L99.82634756570172,23.548024864519494z" style="fill:rgb(247,155,161)"/><path d="M-62.91578535222203,-52.42929549321428L-55.10565170838929,-60.16176491259353L-89.04790472798187,-50.793092206706255zM-62.91578535222203,-52.42929549321428L-93.17858193460421,-44.850486030897315L-93.64138358407423,-43.99148933195112z" style="fill:rgb(83,212,212)"/><path d="M52.10648577994258,-22.499017754846555L23.760279013355966,-76.23211265181163L45.988967034968,-27.731945756377904z" style="fill:rgb(25,53,149)"/><path d="M-49.21395292191975,19.2568757943333L-75.76306896685327,-18.87314308090527L-49.056600846476854,27.41454089832948z" style="fill:rgb(247,162,153)"/><path d="M41.6311452771855,-95.9381522969858L16.879352606934336,-101.89369381780477L6.878462140674443,-101.94576957817067z" style="fill:rgb(83,212,212)"/><path d="M38.278798822307905,-31.46204423148877L15.875542428317708,-79.7538576397319L6.6563380175517874,-81.63503217818727z" style="fill:rgb(59,35,183)"/><path d="M-69.11491523182531,-44.12378433618919L-93.64138358407423,-43.99148933195112L-97.6889552445723,-36.478748965241294zM-69.11491523182531,-44.12378433618919L-62.91578535222203,-52.42929549321428L-93.64138358407423,-43.99148933195112zM41.6311452771855,-95.9381522969858L26.356034263225887,-100.77432625720604L16.879352606934336,-101.89369381780477z" style="fill:rgb(83,212,212)"/><path d="M-47.24147367382057,10.760872547266192L-73.44593160061838,-35.54620768145824L-75.70710581773035,-27.018003983514443z" style="fill:rgb(245,144,171)"/><path d="M-69.11491523182531,-44.12378433618919L-97.6889552445723,-36.478748965241294L-97.75522767687262,-36.30618514308752z" style="fill:rgb(83,212,212)"/><path d="M99.4214371880393,15.235479729152615L86.38753625391821,-15.400328580917026L86.70133315632133,-7.0804744622787155z" style="fill:rgb(247,155,161)"/><path d="M99.82634756570172,23.548024864519494L85.4924077026549,1.6416981079809028L98.74865008106406,32.23681218010576z" style="fill:rgb(245,142,172)"/><path d="M56.34636026354991,-15.937989413658954L29.969759250697876,-71.16973057849859L52.10648577994258,-22.499017754846555z" style="fill:rgb(15,67,129)"/><path d="M43.71138459296295,-94.96270982738814L-14.274943604061317,-80.38295612254326L-3.524360080590187,-81.83788354782531z" style="fill:rgb(83,212,212)"/><path d="M-49.056600846476854,27.41454089832948L-73.55694240876943,-11.447045879819475L-46.72526108111909,34.89909099906491z" style="fill:rgb(243,179,134)"/><path d="M41.6311452771855,-95.9381522969858L35.14823578555319,-98.58507147872714L26.356034263225887,-100.77432625720604z" style="fill:rgb(83,212,212)"/><path d="M45.988967034968,-27.731945756377904L23.760279013355966,-76.23211265181163L15.875542428317708,-79.7538576397319z" style="fill:rgb(40,43,167)"/><path d="M63.82525856805699,85.98932914374492L81.38459189501567,-30.261933572569394L54.173628492970856,-84.45119357269597zM-73.44593160061838,-35.54620768145824L-97.75522767687262,-36.30618514308752L-100.90533267887962,-28.102060416678984zM-73.44593160061838,-35.54620768145824L-69.11491523182531,-44.12378433618919L-97.75522767687262,-36.30618514308752zM43.71138459296295,-94.96270982738814L41.6311452771855,-95.9381522969858L-14.274943604061317,-80.38295612254326zM-53.57786308796703,113.28254389417405L-49.056600846476854,27.41454089832948L-49.21395292191975,19.2568757943333z" style="fill:rgb(83,212,212)"/><path d="M-49.21395292191975,19.2568757943333L-75.70710581773035,-27.018003983514443L-75.76306896685327,-18.87314308090527z" style="fill:rgb(247,162,153)"/><path d="M-75.55011131231707,34.08358806029123L-74.374227926497,41.87512934400459L-53.57786308796703,113.28254389417405zM47.14376971075666,-92.85450179447623L-3.524360080590187,-81.83788354782531L6.6563380175517874,-81.63503217818727z" style="fill:rgb(83,212,212)"/><path d="M99.82634756570172,23.548024864519494L86.70133315632133,-7.0804744622787155L85.4924077026549,1.6416981079809028z" style="fill:rgb(245,142,172)"/><path d="M-75.70710581773035,-27.018003983514443L-100.90533267887962,-28.102060416678984L-100.92469995852545,-28.05160143461343zM47.14376971075666,-92.85450179447623L43.71138459296295,-94.96270982738814L-3.524360080590187,-81.83788354782531zM43.71138459296295,-94.96270982738814L43.098980437660096,-95.33883061022182L41.6311452771855,-95.9381522969858zM-75.70710581773035,-27.018003983514443L-73.44593160061838,-35.54620768145824L-100.90533267887962,-28.102060416678984zM-75.70710581773035,-27.018003983514443L-100.92469995852545,-28.05160143461343L-102.80121444553942,-19.726890785422984z" style="fill:rgb(83,212,212)"/><path d="M52.10648577994258,-22.499017754846555L29.969759250697876,-71.16973057849859L23.760279013355966,-76.23211265181163z" style="fill:rgb(25,53,149)"/><path d="M-53.077678018308575,115.00003691123626L-46.72526108111909,34.89909099906491L-49.056600846476854,27.41454089832948zM51.64960619676899,-89.62814302758237L6.6563380175517874,-81.63503217818727L15.875542428317708,-79.7538576397319zM51.64960619676899,-89.62814302758237L47.14376971075666,-92.85450179447623L6.6563380175517874,-81.63503217818727z" style="fill:rgb(83,212,212)"/><path d="M-49.056600846476854,27.41454089832948L-75.76306896685327,-18.87314308090527L-73.55694240876943,-11.447045879819475z" style="fill:rgb(243,179,134)"/><path d="M-75.76306896685327,-18.87314308090527L-102.80121444553942,-19.726890785422984L-102.80622375988781,-19.70465930389298z" style="fill:rgb(83,212,212)"/><path d="M-62.399493148020696,61.78590322746192L-95.85504821884398,10.029070429867803L-67.7739795137361,55.86735454982651z" style="fill:rgb(26,53,150)"/><path d="M51.64960619676899,-89.62814302758237L50.05685531027567,-91.06524514518716L47.14376971075666,-92.85450179447623zM-75.76306896685327,-18.87314308090527L-75.70710581773035,-27.018003983514443L-102.80121444553942,-19.726890785422984zM-75.76306896685327,-18.87314308090527L-102.80622375988781,-19.70465930389298L-103.27097026178632,-11.57872294983854z" style="fill:rgb(83,212,212)"/><path d="M56.34636026354991,-15.937989413658954L34.21159030407651,-64.73178891776801L29.969759250697876,-71.16973057849859z" style="fill:rgb(15,67,129)"/><path d="M-50.5765236203713,123.58814858005287L-42.26161678116573,41.38646725881027L-46.72526108111909,34.89909099906491z" style="fill:rgb(83,212,212)"/><path d="M84.59242805506274,-23.170698640598697L65.30926582462614,-64.94418243412667L86.38753625391821,-15.400328580917026z" style="fill:rgb(246,167,149)"/><path d="M56.34563466470849,-85.18064194677602L15.875542428317708,-79.7538576397319L23.760279013355966,-76.23211265181163zM56.34563466470849,-85.18064194677602L51.64960619676899,-89.62814302758237L15.875542428317708,-79.7538576397319zM-75.76306896685327,-18.87314308090527L-103.27097026178632,-11.57872294983854L-103.26453873207134,-11.52871688406323z" style="fill:rgb(83,212,212)"/><path d="M65.30926582462614,-64.94418243412667L86.70133315632133,-7.0804744622787155L86.38753625391821,-15.400328580917026z" style="fill:rgb(247,155,161)"/><path d="M56.34563466470849,-85.18064194677602L55.87909814431394,-85.81201736509395L51.64960619676899,-89.62814302758237z" style="fill:rgb(83,212,212)"/><path d="M-55.72271833678195,66.80943187616667L-90.46887348228495,15.832823037273208L-62.399493148020696,61.78590322746192z" style="fill:rgb(36,45,162)"/><path d="M63.82525856805699,85.98932914374492L84.59242805506274,-23.170698640598697L81.38459189501567,-30.261933572569394zM-73.55694240876943,-11.447045879819475L-75.76306896685327,-18.87314308090527L-103.26453873207134,-11.52871688406323zM-73.55694240876943,-11.447045879819475L-103.26453873207134,-11.52871688406323L-102.27839142490498,-3.8347612995330502zM60.49997910533047,-79.50319634458492L56.34563466470849,-85.18064194677602L23.760279013355966,-76.23211265181163zM60.49997910533047,-79.50319634458492L23.760279013355966,-76.23211265181163L29.969759250697876,-71.16973057849859zM-46.0743466814036,139.04699892223425L-35.800468018733795,46.57877131495173L-42.26161678116573,41.38646725881027zM63.82525856805699,85.98932914374492L86.38753625391821,-15.400328580917026L84.59242805506274,-23.170698640598697z" style="fill:rgb(83,212,212)"/><path d="M84.59242805506274,-23.170698640598697L63.60992298018534,-72.65448327137362L65.30926582462614,-64.94418243412667z" style="fill:rgb(246,167,149)"/><path d="M-69.1204640299678,-5.063374566995572L-102.27839142490498,-3.8347612995330502L-102.27621363496336,-3.8179313511021298z" style="fill:rgb(83,212,212)"/><path d="M65.46294344412667,-56.6422972006967L85.4924077026549,1.6416981079809028L86.70133315632133,-7.0804744622787155z" style="fill:rgb(245,142,172)"/><path d="M60.49997910533047,-79.50319634458492L60.4350534169934,-79.64613762432668L56.34563466470849,-85.18064194677602zM63.3096859171946,87.99639625650032L58.48663208863176,-8.286797343288606L58.38453774687415,0.1575583713793368zM-53.57786308796703,113.28254389417405L-53.077678018308575,115.00003691123626L-49.056600846476854,27.41454089832948zM-69.1204640299678,-5.063374566995572L-73.55694240876943,-11.447045879819475L-102.27839142490498,-3.8347612995330502z" style="fill:rgb(83,212,212)"/><path d="M-62.399493148020696,61.78590322746192L-90.46887348228495,15.832823037273208L-95.85504821884398,10.029070429867803z" style="fill:rgb(26,53,150)"/><path d="M-69.1204640299678,-5.063374566995572L-102.27621363496336,-3.8179313511021298L-99.93453321951017,3.0449664912318424zM63.59089644749219,-72.69642066983086L60.49997910533047,-79.50319634458492L29.969759250697876,-71.16973057849859z" style="fill:rgb(83,212,212)"/><path d="M-75.67085228431378,24.554181812312386L-55.72271833678195,66.80943187616667L-47.841461889974504,70.81973910967507z" style="fill:rgb(47,39,173)"/><path d="M63.59089644749219,-72.69642066983086L29.969759250697876,-71.16973057849859L34.21159030407651,-64.73178891776801zM63.82525856805699,85.98932914374492L86.70133315632133,-7.0804744622787155L86.38753625391821,-15.400328580917026zM-53.077678018308575,115.00003691123626L-50.5765236203713,123.58814858005287L-46.72526108111909,34.89909099906491zM60.735494679161576,98.01746473023198L58.38453774687415,0.1575583713793368L55.99188492220241,9.04794483090367zM-7.79570270931513,104.91791550463296L-7.19002779676158,52.1563981568931L-7.436795803995025,52.15554731428709z" style="fill:rgb(83,212,212)"/><path d="M-38.884031248537816,73.71511545539005L-75.67085228431378,24.554181812312386L-47.841461889974504,70.81973910967507z" style="fill:rgb(59,35,184)"/><path d="M-62.582486458076275,-0.018352662281807253L-99.93453321951017,3.0449664912318424L-99.80226468719341,3.432572223646791zM-39.41512578030014,156.39988082371576L-27.572239363857488,50.22129650148134L-35.800468018733795,46.57877131495173zM-15.337585068967398,115.20115762220095L-7.436795803995025,52.15554731428709L-14.501018777214188,52.13148315093114zM-7.536165029695133,104.78799023738019L4.087687514767369,50.30080942243602L-7.19002779676158,52.1563981568931zM63.82525856805699,85.98932914374492L85.4924077026549,1.6416981079809028L86.70133315632133,-7.0804744622787155z" style="fill:rgb(83,212,212)"/><path d="M85.4924077026549,1.6416981079809028L60.99938101473689,-38.86318601495302L82.75029432420867,10.603716024495647z" style="fill:rgb(241,130,183)"/><path d="M65.30926582462614,-64.94418243412667L65.46294344412667,-56.6422972006967L86.70133315632133,-7.0804744622787155z" style="fill:rgb(247,155,161)"/><path d="M-55.72271833678195,66.80943187616667L-83.70859515430874,20.71369009149949L-90.46887348228495,15.832823037273208z" style="fill:rgb(36,45,162)"/><path d="M-62.582486458076275,-0.018352662281807253L-69.1204640299678,-5.063374566995572L-99.93453321951017,3.0449664912318424zM-62.582486458076275,-0.018352662281807253L-99.80226468719341,3.432572223646791L-96.55289763399695,8.862852942411099zM4.269622819764621,98.8777557863881L15.421729191348009,46.61793270514077L4.087687514767369,50.30080942243602zM65.3047319769833,-64.96473719949226L63.59089644749219,-72.69642066983086L34.21159030407651,-64.73178891776801zM65.3047319769833,-64.96473719949226L34.21159030407651,-64.73178891776801L36.25913999146172,-57.148475773942174zM16.168508496811835,99.29021752067044L15.670836355947431,46.49527037716474L15.421729191348009,46.61793270514077zM16.431662704645273,99.29933419212318L22.827959361909407,42.971404248261805L15.670836355947431,46.49527037716474zM-30.20339218199447,154.36507884440186L-17.90020438747536,52.119920420171276L-27.572239363857488,50.22129650148134zM65.3047319769833,-64.96473719949226L63.60992298018534,-72.65448327137362L63.59089644749219,-72.69642066983086z" style="fill:rgb(83,212,212)"/><path d="M60.99938101473689,-38.86318601495302L78.4979900924474,19.630747685095425L82.75029432420867,10.603716024495647z" style="fill:rgb(236,117,193)"/><path d="M98.74865008106406,32.23681218010576L85.4924077026549,1.6416981079809028L50.860756238403305,136.45862037031748z" style="fill:rgb(243,134,180)"/><path d="M-75.67085228431378,24.554181812312386L-83.70859515430874,20.71369009149949L-55.72271833678195,66.80943187616667z" style="fill:rgb(47,39,173)"/><path d="M-54.17254662782275,3.436594421719753L-96.55289763399695,8.862852942411099L-95.85504821884398,10.029070429867803zM56.11804242451628,115.9926138031771L55.99188492220241,9.04794483090367L51.36559692645967,18.000969383433773z" style="fill:rgb(83,212,212)"/><path d="M-56.310801237152674,28.733454800206836L-38.884031248537816,73.71511545539005L-29.008043092571395,75.41433976753605z" style="fill:rgb(73,33,194)"/><path d="M-19.535741541974833,152.00867420015726L-14.501018777214188,52.13148315093114L-17.90020438747536,52.119920420171276z" style="fill:rgb(83,212,212)"/><path d="M65.46294344412667,-56.6422972006967L64.0293532080935,-47.89454165122882L85.4924077026549,1.6416981079809028z" style="fill:rgb(245,142,172)"/><path d="M20.688973777543172,127.98300733969576L-7.79570270931513,104.91791550463296L8.993758176644125,133.83250976735067z" style="fill:rgb(164,51,222)"/><path d="M-50.5765236203713,123.58814858005287L-46.0743466814036,139.04699892223425L-42.26161678116573,41.38646725881027zM-54.17254662782275,3.436594421719753L-95.85504821884398,10.029070429867803L-92.68059957759631,13.449586649914798zM-54.17254662782275,3.436594421719753L-62.582486458076275,-0.018352662281807253L-96.55289763399695,8.862852942411099z" style="fill:rgb(83,212,212)"/><path d="M32.566432399195165,128.556458087517L4.269622819764621,98.8777557863881L20.688973777543172,127.98300733969576z" style="fill:rgb(90,32,203)"/><path d="M65.45367628734992,-56.58588822068019L65.3047319769833,-64.96473719949226L36.25913999146172,-57.148475773942174z" style="fill:rgb(83,212,212)"/><path d="M56.39922024148195,-29.724229399793575L72.79397409666292,28.53984051670831L78.4979900924474,19.630747685095425z" style="fill:rgb(228,104,202)"/><path d="M65.45367628734992,-56.58588822068019L36.25913999146172,-57.148475773942174L35.968536934809315,-48.71171151503976z" style="fill:rgb(83,212,212)"/><path d="M8.993758176644125,133.83250976735067L-15.337585068967398,115.20115762220095L1.7771607338243,143.95361975436z" style="fill:rgb(224,99,205)"/><path d="M65.45367628734992,-56.58588822068019L65.30926582462614,-64.94418243412667L65.3047319769833,-64.96473719949226z" style="fill:rgb(83,212,212)"/><path d="M-45.33889471466474,28.938745150172398L-29.008043092571395,75.41433976753605L-18.398154916993594,75.86042022304099z" style="fill:rgb(88,32,202)"/><path d="M85.4924077026549,1.6416981079809028L64.0293532080935,-47.89454165122882L60.99938101473689,-38.86318601495302z" style="fill:rgb(241,130,183)"/><path d="M-7.79570270931513,104.91791550463296L-7.536165029695133,104.78799023738019L-7.19002779676158,52.1563981568931zM-44.21887891943863,5.112548584205232L-92.68059957759631,13.449586649914798L-90.46887348228495,15.832823037273208zM-7.536165029695133,104.78799023738019L4.269622819764621,98.8777557863881L4.087687514767369,50.30080942243602zM-44.21887891943863,5.112548584205232L-90.46887348228495,15.832823037273208L-89.18793544683047,16.75764055127448zM49.28361904557765,136.80699280823407L51.36559692645967,18.000969383433773L44.6732610875612,26.61521532604167zM65.45367628734992,-56.58588822068019L65.46294344412667,-56.6422972006967L65.30926582462614,-64.94418243412667zM-15.337585068967398,115.20115762220095L-7.79570270931513,104.91791550463296L-7.436795803995025,52.15554731428709zM-44.21887891943863,5.112548584205232L-54.17254662782275,3.436594421719753L-92.68059957759631,13.449586649914798z" style="fill:rgb(83,212,212)"/><path d="M-38.884031248537816,73.71511545539005L-66.48473713283171,27.253852878123922L-75.67085228431378,24.554181812312386z" style="fill:rgb(59,35,184)"/><path d="M63.3096859171946,87.99639625650032L63.82525856805699,85.98932914374492L58.48663208863176,-8.286797343288606z" style="fill:rgb(83,212,212)"/><path d="M40.1974511158888,135.43509733652886L16.431662704645273,99.29933419212318L32.566432399195165,128.556458087517z" style="fill:rgb(30,49,155)"/><path d="M39.704090470035275,138.9230379253864L44.6732610875612,26.61521532604167L36.190413032724585,34.493526481412765z" style="fill:rgb(83,212,212)"/><path d="M72.79397409666292,28.53984051670831L42.780737177535514,-11.870159241647565L65.7328039280251,37.14458878073988z" style="fill:rgb(218,92,209)"/><path d="M4.269622819764621,98.8777557863881L16.168508496811835,99.29021752067044L15.421729191348009,46.61793270514077z" style="fill:rgb(83,212,212)"/><path d="M-33.78451725622233,27.843975587563683L-18.398154916993594,75.86042022304099L-7.262480728995564,75.0239820504925z" style="fill:rgb(103,33,209)"/><path d="M28.720697909041316,141.34918726103706L36.190413032724585,34.493526481412765L26.2898186017399,41.26694761506153zM24.917220522910412,142.18934712137082L26.2898186017399,41.26694761506153L22.827959361909407,42.971404248261805zM64.03247704938254,-47.91350889715063L65.45367628734992,-56.58588822068019L35.968536934809315,-48.71171151503976zM64.03247704938254,-47.91350889715063L35.968536934809315,-48.71171151503976L33.29492981275211,-39.76688148602823zM-33.13828225188767,4.898664122692506L-89.18793544683047,16.75764055127448L-86.5168558329249,18.686149837812895z" style="fill:rgb(83,212,212)"/><path d="M20.688973777543172,127.98300733969576L4.269622819764621,98.8777557863881L-7.79570270931513,104.91791550463296z" style="fill:rgb(164,51,222)"/><path d="M16.168508496811835,99.29021752067044L16.431662704645273,99.29933419212318L15.670836355947431,46.49527037716474z" style="fill:rgb(83,212,212)"/><path d="M42.780737177535514,-11.870159241647565L57.44413875420342,45.26059132509934L65.7328039280251,37.14458878073988z" style="fill:rgb(207,81,215)"/><path d="M-15.480301168893899,125.96068553607329L1.7931793070260689,154.6353351897977L1.7771607338243,143.95361975436z" style="fill:rgb(247,158,158)"/><path d="M-56.310801237152674,28.733454800206836L-66.48473713283171,27.253852878123922L-38.884031248537816,73.71511545539005z" style="fill:rgb(73,33,194)"/><path d="M8.993758176644125,133.83250976735067L-7.79570270931513,104.91791550463296L-15.337585068967398,115.20115762220095z" style="fill:rgb(224,99,205)"/><path d="M-21.883728565917774,25.45430814308455L-7.262480728995564,75.0239820504925L4.172349577091498,72.9056824054058z" style="fill:rgb(119,35,215)"/><path d="M-33.13828225188767,4.898664122692506L-44.21887891943863,5.112548584205232L-89.18793544683047,16.75764055127448zM-21.418390464812568,2.7746201944833833L-86.5168558329249,18.686149837812895L-85.61024646392231,19.340732043066236z" style="fill:rgb(83,212,212)"/><path d="M60.99938101473689,-38.86318601495302L56.39922024148195,-29.724229399793575L78.4979900924474,19.630747685095425z" style="fill:rgb(236,117,193)"/><path d="M-46.0743466814036,139.04699892223425L-39.41512578030014,156.39988082371576L-35.800468018733795,46.57877131495173zM60.735494679161576,98.01746473023198L63.3096859171946,87.99639625650032L58.38453774687415,0.1575583713793368z" style="fill:rgb(83,212,212)"/><path d="M32.566432399195165,128.556458087517L16.431662704645273,99.29933419212318L4.269622819764621,98.8777557863881z" style="fill:rgb(90,32,203)"/><path d="M16.431662704645273,99.29933419212318L24.15781108764716,106.12538184421575L22.827959361909407,42.971404248261805z" style="fill:rgb(83,212,212)"/><path d="M34.002758091187275,-3.5346498690923496L48.090618968932034,52.71115996689872L57.44413875420342,45.26059132509934z" style="fill:rgb(195,70,219)"/><path d="M15.667456279763698,69.53729718379346L-21.883728565917774,25.45430814308455L4.172349577091498,72.9056824054058z" style="fill:rgb(135,39,219)"/><path d="M48.090618968932034,52.71115996689872L13.371728190704664,11.046431013532471L37.86375488794406,59.333106826739666z" style="fill:rgb(181,60,221)"/><path d="M61.1611594646816,-39.345374136224706L33.29492981275211,-39.76688148602823L28.303697524343967,-30.699338256418198z" style="fill:rgb(83,212,212)"/><path d="M1.9503755023255662,16.970985919470706L15.667456279763698,69.53729718379346L26.978625603214315,64.98204408390072z" style="fill:rgb(151,45,221)"/><path d="M-21.418390464812568,2.7746201944833833L-33.13828225188767,4.898664122692506L-86.5168558329249,18.686149837812895zM61.1611594646816,-39.345374136224706L64.03247704938254,-47.91350889715063L33.29492981275211,-39.76688148602823z" style="fill:rgb(83,212,212)"/><path d="M13.371728190704664,11.046431013532471L26.978625603214315,64.98204408390072L37.86375488794406,59.333106826739666z" style="fill:rgb(166,52,222)"/><path d="M-45.33889471466474,28.938745150172398L-56.310801237152674,28.733454800206836L-29.008043092571395,75.41433976753605z" style="fill:rgb(88,32,202)"/><path d="M-15.480301168893899,125.96068553607329L1.7771607338243,143.95361975436L-15.337585068967398,115.20115762220095z" style="fill:rgb(247,158,158)"/><path d="M56.39922024148195,-29.724229399793575L50.292445706394375,-20.663144524129013L72.79397409666292,28.53984051670831z" style="fill:rgb(228,104,202)"/><path d="M98.74865008106406,32.23681218010576L50.860756238403305,136.45862037031748L66.6227581283674,165.86074294236752z" style="fill:rgb(243,134,180)"/><path d="M61.1611594646816,-39.345374136224706L64.0293532080935,-47.89454165122882L64.03247704938254,-47.91350889715063zM-9.886547101352873,21.80687722525619L-85.61024646392231,19.340732043066236L-83.70859515430874,20.71369009149949z" style="fill:rgb(83,212,212)"/><path d="M40.1974511158888,135.43509733652886L24.15781108764716,106.12538184421575L16.431662704645273,99.29933419212318z" style="fill:rgb(30,49,155)"/><path d="M57.21108197819748,-31.337120162788015L28.303697524343967,-30.699338256418198L21.176265626559275,-21.916197604516636zM-39.41512578030014,156.39988082371576L-30.20339218199447,154.36507884440186L-27.572239363857488,50.22129650148134z" style="fill:rgb(83,212,212)"/><path d="M72.79397409666292,28.53984051670831L50.292445706394375,-20.663144524129013L42.780737177535514,-11.870159241647565z" style="fill:rgb(218,92,209)"/><path d="M56.11804242451628,115.9926138031771L60.735494679161576,98.01746473023198L55.99188492220241,9.04794483090367z" style="fill:rgb(83,212,212)"/><path d="M-33.78451725622233,27.843975587563683L-45.33889471466474,28.938745150172398L-18.398154916993594,75.86042022304099z" style="fill:rgb(103,33,209)"/><path d="M57.21108197819748,-31.337120162788015L61.1611594646816,-39.345374136224706L28.303697524343967,-30.699338256418198zM-9.886547101352873,21.80687722525619L-83.70859515430874,20.71369009149949L-75.67085228431378,24.554181812312386zM57.21108197819748,-31.337120162788015L60.99938101473689,-38.86318601495302L61.1611594646816,-39.345374136224706zM-30.20339218199447,154.36507884440186L-19.535741541974833,152.00867420015726L-17.90020438747536,52.119920420171276zM52.79586163286223,-24.377689649087877L21.176265626559275,-21.916197604516636L12.207119703806194,-13.823668971685066z" style="fill:rgb(83,212,212)"/><path d="M-21.883728565917774,25.45430814308455L-33.78451725622233,27.843975587563683L-7.262480728995564,75.0239820504925z" style="fill:rgb(119,35,215)"/><path d="M42.780737177535514,-11.870159241647565L34.002758091187275,-3.5346498690923496L57.44413875420342,45.26059132509934z" style="fill:rgb(207,81,215)"/><path d="M-19.535741541974833,152.00867420015726L-15.814903892537625,151.1867688414625L-14.501018777214188,52.13148315093114zM52.79586163286223,-24.377689649087877L57.21108197819748,-31.337120162788015L21.176265626559275,-21.916197604516636zM48.86503494404311,-18.992268187311932L12.207119703806194,-13.823668971685066L1.7921985169836059,-6.8023844661977195zM44.88838519356852,-14.33729213457274L-9.592370097325245,-1.183156476815285L-21.418390464812568,2.7746201944833833zM-9.886547101352873,21.80687722525619L-75.67085228431378,24.554181812312386L-66.48473713283171,27.253852878123922zM45.89468736990233,-15.515255778846L1.7921985169836059,-6.8023844661977195L-9.592370097325245,-1.183156476815285z" style="fill:rgb(83,212,212)"/><path d="M34.002758091187275,-3.5346498690923496L24.131886675992213,4.160795724055913L48.090618968932034,52.71115996689872z" style="fill:rgb(195,70,219)"/><path d="M15.667456279763698,69.53729718379346L-9.886547101352873,21.80687722525619L-21.883728565917774,25.45430814308455z" style="fill:rgb(135,39,219)"/><path d="M52.79586163286223,-24.377689649087877L56.39922024148195,-29.724229399793575L57.21108197819748,-31.337120162788015zM-9.886547101352873,21.80687722525619L44.88838519356852,-14.33729213457274L-85.61024646392231,19.340732043066236zM48.86503494404311,-18.992268187311932L52.79586163286223,-24.377689649087877L12.207119703806194,-13.823668971685066z" style="fill:rgb(83,212,212)"/><path d="M48.090618968932034,52.71115996689872L24.131886675992213,4.160795724055913L13.371728190704664,11.046431013532471z" style="fill:rgb(181,60,221)"/><path d="M1.9503755023255662,16.970985919470706L-9.886547101352873,21.80687722525619L15.667456279763698,69.53729718379346z" style="fill:rgb(151,45,221)"/><path d="M13.371728190704664,11.046431013532471L1.9503755023255662,16.970985919470706L26.978625603214315,64.98204408390072z" style="fill:rgb(166,52,222)"/><path d="M45.89468736990233,-15.515255778846L48.86503494404311,-18.992268187311932L1.7921985169836059,-6.8023844661977195zM49.28361904557765,136.80699280823407L56.11804242451628,115.9926138031771L51.36559692645967,18.000969383433773zM-9.886547101352873,21.80687722525619L-66.48473713283171,27.253852878123922L-56.310801237152674,28.733454800206836zM44.88838519356852,-14.33729213457274L45.89468736990233,-15.515255778846L-9.592370097325245,-1.183156476815285z" style="fill:rgb(83,212,212)"/><path d="M66.6227581283674,165.86074294236752L-40.92354462324513,156.73307401294238L-22.586386464499302,184.85314789986663z" style="fill:rgb(127,37,217)"/><path d="M48.86503494404311,-18.992268187311932L50.292445706394375,-20.663144524129013L52.79586163286223,-24.377689649087877zM24.917220522910412,142.18934712137082L28.720697909041316,141.34918726103706L26.2898186017399,41.26694761506153zM-9.886547101352873,21.80687722525619L-56.310801237152674,28.733454800206836L-45.33889471466474,28.938745150172398zM28.720697909041316,141.34918726103706L39.704090470035275,138.9230379253864L36.190413032724585,34.493526481412765zM39.704090470035275,138.9230379253864L49.28361904557765,136.80699280823407L44.6732610875612,26.61521532604167zM-9.886547101352873,21.80687722525619L-45.33889471466474,28.938745150172398L-33.78451725622233,27.843975587563683zM-9.886547101352873,21.80687722525619L42.780737177535514,-11.870159241647565L44.88838519356852,-14.33729213457274zM-46.0743466814036,139.04699892223425L-40.92354462324513,156.73307401294238L-39.41512578030014,156.39988082371576zM-9.886547101352873,21.80687722525619L34.002758091187275,-3.5346498690923496L42.780737177535514,-11.870159241647565zM-9.886547101352873,21.80687722525619L-33.78451725622233,27.843975587563683L-21.883728565917774,25.45430814308455zM-15.814903892537625,151.1867688414625L-7.987413846511561,133.10108959641212L-15.480301168893899,125.96068553607329zM-9.886547101352873,21.80687722525619L24.131886675992213,4.160795724055913L34.002758091187275,-3.5346498690923496zM-9.886547101352873,21.80687722525619L13.371728190704664,11.046431013532471L24.131886675992213,4.160795724055913zM-9.886547101352873,21.80687722525619L1.9503755023255662,16.970985919470706L13.371728190704664,11.046431013532471zM-8.09884455266875,149.48235139259432L4.400185471648385,133.73814166799983L-7.987413846511561,133.10108959641212zM-15.814903892537625,151.1867688414625L-8.09884455266875,149.48235139259432L-7.987413846511561,133.10108959641212zM17.074603598637463,143.921720523177L24.384822382405375,116.9060442065596L16.838232708597943,127.5167372868788zM4.448771517454499,146.71067463072393L16.838232708597943,127.5167372868788L4.400185471648385,133.73814166799983z" style="fill:rgb(83,212,212)"/><path d="M66.6227581283674,165.86074294236752L50.860756238403305,136.45862037031748L-40.92354462324513,156.73307401294238z" style="fill:rgb(127,37,217)"/><path d="M-8.09884455266875,149.48235139259432L4.448771517454499,146.71067463072393L4.400185471648385,133.73814166799983zM17.074603598637463,143.921720523177L24.917220522910412,142.18934712137082L24.384822382405375,116.9060442065596zM4.448771517454499,146.71067463072393L17.074603598637463,143.921720523177L16.838232708597943,127.5167372868788zM49.28361904557765,136.80699280823407L50.860756238403305,136.45862037031748L56.11804242451628,115.9926138031771z" style="fill:rgb(83,212,212)"/></svg>
